<?xml version="1.0" ?><!DOCTYPE svg  PUBLIC '-//W3C//DTD SVG 1.1//EN'  'http://www.w3.org/Graphics/SVG/1.1/DTD/svg11.dtd'><svg enable-background="new 0 0 91 91" height="91px" id="Layer_1" version="1.1" viewBox="0 0 91 91" width="91px" xml:space="preserve" xmlns="http://www.w3.org/2000/svg" xmlns:xlink="http://www.w3.org/1999/xlink" fill="white"><g><path d="M46.567,19.796h-0.322c-7.17,0-13.002,5.027-13.002,11.209V42.94c-2.236,2.418-3.582,5.469-3.582,8.789v7.318   c0,7.82,7.416,14.182,16.535,14.182h0.422c9.117,0,16.535-6.361,16.535-14.182v-7.318c0-3.32-1.35-6.373-3.586-8.793V31.005   C59.567,24.823,53.735,19.796,46.567,19.796z M36.644,31.005c0-4.307,4.309-7.809,9.602-7.809h0.322c5.293,0,9.6,3.502,9.6,7.809   v9.166c-2.701-1.646-5.992-2.625-9.549-2.625h-0.422c-3.561,0-6.852,0.979-9.553,2.629V31.005z M59.753,51.729v7.318   c0,5.945-5.893,10.781-13.135,10.781h-0.422c-7.244,0-13.137-4.836-13.137-10.781v-7.318c0-5.945,5.893-10.783,13.137-10.783h0.422   C53.86,40.946,59.753,45.784,59.753,51.729z"/><rect height="9.566" width="3.4" x="44.704" y="51.136"/></g></svg>